<svg xmlns="http://www.w3.org/2000/svg" xmlns:xlink="http://www.w3.org/1999/xlink" width="500" zoomAndPan="magnify" viewBox="0 0 375 374.999991" height="500" preserveAspectRatio="xMidYMid meet" version="1.0"><defs><g/><clipPath id="id1"><path d="M 43 99 L 268 99 L 268 359.0625 L 43 359.0625 Z M 43 99 " clip-rule="nonzero"/></clipPath></defs><g fill="#000000" fill-opacity="1"><g transform="translate(65.005331, 119.024136)"><g><path d="M 11.503906 -73.003906 C 4.097656 -72.125 -1.769531 -70.1875 -6.5 -67.152344 C -14.660156 -61.910156 -17.207031 -55.640625 -13.433594 -49.765625 C -10.300781 -44.886719 -6.4375 -44.242188 2.78125 -48.007812 L 7.867188 -49.980469 C 20.453125 -55.046875 29.019531 -53.117188 34.847656 -44.039062 C 41.757812 -33.285156 38.058594 -22.9375 24.101562 -13.972656 C 18.839844 -10.59375 12.15625 -7.914062 4.230469 -6.164062 L -3.414062 -18.0625 C 4.894531 -18.550781 11.894531 -20.566406 17.535156 -24.195312 C 26.15625 -29.730469 28.265625 -37.011719 26.160156 -40.292969 C 24.25 -43.265625 18.867188 -44.765625 10.261719 -41.390625 L 5.097656 -39.367188 C -7.535156 -34.378906 -15.15625 -35.839844 -20.59375 -44.304688 C -26.914062 -54.144531 -23.460938 -64.875 -11.257812 -72.714844 C -6.070312 -76.046875 -0.0703125 -78.609375 6.800781 -80.328125 Z M 11.503906 -73.003906 "/></g></g></g><g fill="#000000" fill-opacity="1"><g transform="translate(103.550841, 90.306298)"><g><path d="M 19.367188 -63.773438 L -3.601562 -58.824219 L -4.902344 -66.234375 L 50.191406 -75.898438 L 51.492188 -68.488281 L 28.207031 -65.324219 L 40.269531 -7.066406 L 27.949219 -4.902344 Z M 19.367188 -63.773438 "/></g></g></g><g fill="#000000" fill-opacity="1"><g transform="translate(159.678128, 79.404612)"><g><path d="M 48.128906 10.324219 L 6.46875 1.386719 L 20.332031 -63.226562 L 61.195312 -54.460938 L 59.617188 -47.105469 L 27.53125 -53.988281 L 23.421875 -34.84375 L 54.179688 -28.242188 L 52.601562 -20.886719 L 21.84375 -27.484375 L 18.117188 -10.113281 L 51 -3.058594 Z M 48.128906 10.324219 "/></g></g></g><g fill="#000000" fill-opacity="1"><g transform="translate(203.634738, 84.285327)"><g><path d="M 14.652344 10.371094 L 5.402344 3.824219 L 44.6875 -49.335938 L 55.566406 -41.636719 L 46.285156 -0.117188 L 83.167969 -22.101562 L 93.304688 -14.925781 L 56.238281 39.800781 L 46.914062 33.203125 L 81.910156 -13.109375 L 41.296875 16.34375 L 32.492188 10.113281 L 46.761719 -37.984375 Z M 14.652344 10.371094 "/></g></g></g><g fill="#000000" fill-opacity="1"><g transform="translate(255.320557, 123.176001)"><g><path d="M 14.304688 19.75 L 3.882812 5.359375 C 22.667969 -7.800781 38.386719 -18.398438 57.777344 -30.878906 L 62.296875 -24.636719 C 45.800781 -14.035156 32.855469 -5.328125 16.816406 6.066406 L 22.453125 13.847656 Z M 14.304688 19.75 "/></g></g></g><g fill="#000000" fill-opacity="1"><g transform="translate(271.01972, 139.536696)"><g><path d="M 43.097656 39.746094 L 30.398438 5.007812 C 18.03125 9.722656 18.144531 16.628906 21.335938 26.949219 C 23.484375 32.824219 25.421875 38.386719 30.308594 42.78125 L 19.8125 46.808594 C 15.40625 42.144531 12.097656 36.792969 9.917969 30.832031 C 5.015625 15.832031 10.359375 3.257812 25.089844 -2.125 C 40.546875 -7.101562 53.1875 -2.359375 58.324219 11.691406 C 62.355469 24.308594 58.902344 32.808594 45.992188 38.6875 Z M 47.394531 30.644531 C 52.277344 27.894531 57.09375 20.730469 54.320312 13.152344 C 51.210938 4.640625 42.972656 1.375 37.351562 3.429688 Z M 47.394531 30.644531 "/></g></g></g><g fill="#000000" fill-opacity="1"><g transform="translate(289.693239, 183.081542)"><g><path d="M 28.492188 32.171875 L 48.421875 47.628906 L 48.214844 55.875 L 22.277344 37.730469 L -1.402344 56.460938 L -1.074219 43.320312 L 16.425781 32.417969 L -0.488281 19.757812 L -0.164062 6.617188 L 23.089844 26.960938 L 49.34375 10.382812 L 49.128906 19.082031 Z M 28.492188 32.171875 "/></g></g></g><g clip-path="url(#id1)"><path fill="#100f0d" d="M 208.371094 211.660156 L 201.195312 211.820312 C 202.390625 213.011719 203.148438 214.667969 203.195312 216.511719 C 203.28125 220.253906 200.382812 223.355469 196.714844 223.445312 C 193.046875 223.523438 190.011719 220.566406 189.925781 216.824219 C 189.878906 214.980469 190.558594 213.289062 191.699219 212.042969 L 184.515625 212.210938 C 181.769531 212.273438 179.472656 210.046875 179.410156 207.230469 L 179.199219 198.226562 C 178.011719 199.445312 176.351562 200.222656 174.503906 200.265625 C 170.757812 200.355469 167.640625 197.386719 167.5625 193.648438 C 167.472656 189.90625 170.433594 186.796875 174.183594 186.707031 C 176.03125 186.671875 177.726562 187.367188 178.976562 188.535156 L 178.796875 181.203125 C 178.734375 178.386719 180.964844 176.054688 183.785156 175.992188 L 207.414062 175.441406 C 210.234375 175.367188 212.574219 177.597656 212.636719 180.410156 L 212.804688 187.742188 C 211.554688 186.582031 209.832031 185.890625 207.984375 185.933594 C 204.238281 186.03125 201.273438 189.148438 201.375 192.890625 C 201.472656 196.632812 204.59375 199.578125 208.332031 199.492188 C 210.179688 199.4375 211.839844 198.664062 213.035156 197.433594 L 213.242188 206.449219 C 213.3125 209.253906 211.128906 211.585938 208.371094 211.660156 Z M 166.292969 152.058594 C 166.945312 148.085938 168.25 141.714844 169.820312 140.832031 C 172.148438 139.488281 178.304688 141.839844 178.9375 144.164062 C 179.582031 146.570312 176.332031 151.996094 174.433594 154.917969 C 173.628906 156.101562 172.203125 156.664062 170.828125 156.367188 L 168.925781 155.957031 C 167.160156 155.558594 165.980469 153.839844 166.292969 152.058594 Z M 156.449219 154.710938 C 156.449219 156.609375 155.253906 158.328125 153.453125 159.003906 L 150.964844 159.941406 C 148.625 160.839844 146.027344 159.746094 145.039062 157.464844 C 142.832031 152.429688 139.59375 144.210938 140.691406 142 C 142.359375 138.75 151.132812 136.878906 153.613281 139.070312 C 156.148438 141.316406 156.488281 149.9375 156.449219 154.710938 Z M 148.019531 203.375 C 146.171875 203.328125 144.511719 202.574219 143.324219 201.371094 L 143.15625 208.542969 C 143.09375 211.292969 140.753906 213.46875 137.933594 213.40625 L 128.902344 213.191406 C 130.136719 211.996094 130.910156 210.347656 130.964844 208.503906 C 131.0625 204.765625 128.101562 201.65625 124.351562 201.558594 C 120.605469 201.460938 117.488281 204.40625 117.390625 208.148438 C 117.339844 209.992188 118.035156 211.710938 119.203125 212.96875 L 111.851562 212.800781 C 109.039062 212.738281 106.800781 210.394531 106.871094 207.589844 L 107.425781 184 C 107.488281 181.183594 109.824219 178.957031 112.644531 179.019531 L 119.988281 179.199219 C 118.820312 177.941406 118.125 176.257812 118.167969 174.414062 C 118.257812 170.675781 121.363281 167.707031 125.109375 167.796875 C 128.859375 167.886719 131.832031 170.984375 131.742188 174.726562 C 131.695312 176.570312 130.921875 178.226562 129.699219 179.421875 L 138.730469 179.625 C 141.539062 179.699219 143.78125 181.976562 143.71875 184.730469 L 143.539062 191.902344 C 144.789062 190.761719 146.484375 190.074219 148.332031 190.121094 C 152.078125 190.210938 155.050781 193.246094 154.960938 196.90625 C 154.878906 200.558594 151.765625 203.464844 148.019531 203.375 Z M 228.136719 307.183594 C 227.511719 297.378906 230.484375 283.820312 236.496094 276.035156 C 260.492188 244.964844 271.128906 218.035156 266.105469 184.898438 C 257.96875 131.203125 219.980469 102.761719 167.445312 100.070312 C 110.039062 97.105469 60.878906 133.914062 62.457031 184.675781 C 62.671875 191.386719 63.839844 201.246094 63.8125 207.695312 C 63.761719 230.597656 43.914062 240.003906 43.53125 247.289062 C 42.894531 259.253906 56.988281 255.519531 61.949219 272.445312 C 68.257812 293.9375 59.21875 318.445312 88.558594 316.9375 C 100.265625 316.464844 119.292969 311.933594 127.449219 319.496094 C 132.652344 324.324219 136.835938 345.382812 138.46875 354.707031 C 138.925781 357.289062 141.171875 359.171875 143.804688 359.171875 L 231.917969 359.171875 C 235.535156 359.171875 238.140625 355.722656 237.132812 352.257812 C 234.195312 342.191406 229.136719 322.953125 228.136719 307.183594 " fill-opacity="1" fill-rule="nonzero"/></g></svg>